<?xml version="1.0" encoding="UTF-8" standalone="no"?>
<!DOCTYPE svg PUBLIC "-//W3C//DTD SVG 1.1//EN" "http://www.w3.org/Graphics/SVG/1.1/DTD/svg11.dtd">
<svg width="100%" height="100%" viewBox="0 0 260 248" version="1.1" xmlns="http://www.w3.org/2000/svg" xmlns:xlink="http://www.w3.org/1999/xlink" xml:space="preserve" xmlns:serif="http://www.serif.com/" style="fill-rule:evenodd;clip-rule:evenodd;stroke-linejoin:round;stroke-miterlimit:2;">
    <g id="Artboard1" transform="matrix(0.97962,0,0,1,-420.049,0)">
        <rect x="428.788" y="0" width="265.409" height="248" style="fill:none;"/>
        <g transform="matrix(1.0208,0,0,1,-10.1581,0)">
            <g id="core_circles_center">
                <g>
                    <g id="core_circles_center_right">
                        <g id="core_line_right_top">
                            <rect id="core_line_right_top_top" x="563" y="49" width="30" height="2" style="fill:rgb(171,255,132);"/>
                            <rect id="core_line_right_top_bottom" x="563" y="71" width="30" height="2" style="fill:rgb(171,255,132);"/>
                        </g>
                        <g id="core_line_right_bottom">
                            <rect id="core_line_right_bottom_top" x="563" y="196" width="30" height="2" style="fill:rgb(171,255,132);"/>
                            <rect id="core_line_right_bottom_bottom" x="563" y="175" width="30" height="2" style="fill:rgb(171,255,132);"/>
                        </g>
                        <path id="core_circles_center_right_top" d="M561,62C561,27.758 588.758,0 623,0C657.242,0 685,27.758 685,62C685,96.242 657.242,124 623,124C657.242,124 685,151.758 685,186C685,220.242 657.242,248 623,248C588.758,248 561,220.242 561,186C561,151.758 588.758,124 623,124C588.758,124 561,96.242 561,62Z" style="fill:url(#_Radial1);"/>
                        <g id="core_circles_center_right_bottom" transform="matrix(1,-0,-0,1,430,-0)">
                        </g>
                    </g>
                    <g id="core_circles_center_left">
                        <g id="core_line_left_top">
                            <rect id="core_line_left_top_top" x="527" y="50" width="30" height="2" style="fill:rgb(171,255,132);"/>
                            <rect id="core_line_left_top_bottom" x="527" y="71" width="30" height="2" style="fill:rgb(171,255,132);"/>
                        </g>
                        <g id="core_line_left_bottom">
                            <rect id="core_line_left_bottom_top" x="527" y="175" width="30" height="2" style="fill:rgb(171,255,132);"/>
                            <rect id="core_line_left_bottom_bottom" x="527" y="196" width="30" height="2" style="fill:rgb(171,255,132);"/>
                        </g>
                        <path id="core_circles_center_left_top" d="M559,62C559,27.758 531.242,0 497,0C462.758,0 435,27.758 435,62C435,96.242 462.758,124 497,124C462.758,124 435,151.758 435,186C435,220.242 462.758,248 497,248C531.242,248 559,220.242 559,186C559,151.758 531.242,124 497,124C531.242,124 559,96.242 559,62Z" style="fill:url(#_Radial2);"/>
                        <g id="core_circles_center_left_bottom" transform="matrix(1,-0,-0,1,430,-0)">
                        </g>
                    </g>
                </g>
            </g>
        </g>
    </g>
    <defs>
        <radialGradient id="_Radial1" cx="0" cy="0" r="1" gradientUnits="userSpaceOnUse" gradientTransform="matrix(41.9992,307,-167.784,22.9537,573,-37.9991)"><stop offset="0" style="stop-color:rgb(251,254,250);stop-opacity:1"/><stop offset="0.4" style="stop-color:rgb(201,246,180);stop-opacity:1"/><stop offset="0.78" style="stop-color:rgb(171,255,132);stop-opacity:1"/><stop offset="1" style="stop-color:rgb(47,238,101);stop-opacity:1"/></radialGradient>
        <radialGradient id="_Radial2" cx="0" cy="0" r="1" gradientUnits="userSpaceOnUse" gradientTransform="matrix(-42.0003,307,-167.784,-22.9543,547,-38)"><stop offset="0" style="stop-color:rgb(251,254,250);stop-opacity:1"/><stop offset="0.4" style="stop-color:rgb(201,246,180);stop-opacity:1"/><stop offset="0.78" style="stop-color:rgb(171,255,132);stop-opacity:1"/><stop offset="1" style="stop-color:rgb(47,238,101);stop-opacity:1"/></radialGradient>
    </defs>
</svg>
