<svg xmlns="http://www.w3.org/2000/svg" version="1.1" xmlns:xlink="http://www.w3.org/1999/xlink" preserveAspectRatio="xMinYMin" width="300" height="300" viewBox="0 0 100 100">
<defs>
<g id="Layer2_0_MEMBER_0_FILL">
<path fill="#103B66" stroke="none" d="
M 384.95 88.2
L 389 67.45 375.6 67.45 372 86.15
Q 373.1 86.55 375 87.1 379.95 88.45 384.95 88.2 Z"/>
</g>

<g id="Layer2_0_MEMBER_1_FILL">
<path fill="#103B66" stroke="none" d="
M 42.35 33.05
L 46.45 12.15 59.6 12.15
Q 52.95 4.4 43 1.8 29.6 -1.8 17.65 5.15 5.65 12.05 2.05 25.45 0 33 1.55 40.65 3.05 48 7.55 54.05
L 15.7 12.15 33.05 12.15 29 33.05 42.35 33.05 Z"/>
</g>

<g id="Layer2_0_MEMBER_2_FILL">
<path fill="#103B66" stroke="none" d="
M 415.95 63.45
Q 417.8 56.7 416.75 49.8 415.75 43.15 412.2 37.35
L 403.6 81.65
Q 413 74.65 415.95 63.45 Z"/>
</g>
</defs>

<g transform="matrix( 1.4644927978515625, 0, 0, 1.4649810791015625, -511.85,-30.2)">
<use xlink:href="#Layer2_0_MEMBER_0_FILL"/>
</g>

<g transform="matrix( 1.4644927978515625, 0, 0, 1.4649810791015625, -0.3,0.15)">
<use xlink:href="#Layer2_0_MEMBER_1_FILL"/>
</g>

<g transform="matrix( 1.4644927978515625, 0, 0, 1.4649810791015625, -511.85,-30.2)">
<use xlink:href="#Layer2_0_MEMBER_2_FILL"/>
</g>
</svg>