<svg width="185" height="200" viewBox="0 0 185 200" fill="none" xmlns="http://www.w3.org/2000/svg">
<path d="M115.545 77.4545L138.591 100.5L115.545 123.545M69.4545 123.545L46.4091 100.5L69.4545 77.4545M31.0455 185H153.955C160.067 185 165.928 182.572 170.25 178.25C174.572 173.928 177 168.067 177 161.955V39.0455C177 32.9334 174.572 27.0717 170.25 22.7499C165.928 18.428 160.067 16 153.955 16H31.0455C24.9334 16 19.0717 18.428 14.7499 22.7499C10.428 27.0717 8 32.9334 8 39.0455V161.955C8 168.067 10.428 173.928 14.7499 178.25C19.0717 182.572 24.9334 185 31.0455 185Z" stroke="#FF426C" stroke-width="4.5" stroke-linecap="round" stroke-linejoin="round"/>
</svg>
