<svg width="185" height="200" viewBox="0 0 185 200" fill="none" xmlns="http://www.w3.org/2000/svg">
<path d="M181 55.625L158.875 42.7138M181 55.625V77.75M181 55.625L158.875 68.5362M4 55.625L26.125 42.7138M4 55.625L26.125 68.5362M4 55.625V77.75M92.5 107.25L114.625 94.3388M92.5 107.25L70.375 94.3388M92.5 107.25V129.375M92.5 195.75L114.625 182.839M92.5 195.75V173.625M92.5 195.75L70.375 182.839M70.375 16.9013L92.5 4L114.625 16.9112M181 122V144.125L158.875 157.036M26.125 157.036L4 144.125V122" stroke="#2FC3D7" stroke-width="4.5" stroke-linecap="round" stroke-linejoin="round"/>
</svg>
