<svg width="185" height="200" viewBox="0 0 185 200" fill="none" xmlns="http://www.w3.org/2000/svg">
<path d="M17.37 174.63C20.6589 177.92 24.5636 180.529 28.8611 182.31C33.1587 184.09 37.7649 185.007 42.4167 185.007M17.37 174.63C24.0119 181.272 33.0236 185.007 42.4167 185.007M17.37 174.63C10.7281 167.988 7 158.976 7 149.583V25.625C7 19.76 11.76 15 17.625 15H67.2083C73.0733 15 77.8333 19.76 77.8333 25.625V64.0828M42.4167 185.007C47.0684 185.007 51.6746 184.09 55.9722 182.31C60.2698 180.529 64.1745 177.92 67.4633 174.63M42.4167 185.007C51.8098 185.007 60.8214 181.272 67.4633 174.63M42.4167 185.007L166.375 185C172.24 185 177 180.24 177 174.375V124.792C177 118.927 172.24 114.167 166.375 114.167H127.917M67.4633 174.63L127.917 114.167M67.4633 174.63C74.1053 167.988 77.8333 158.976 77.8333 149.583V64.0828M127.917 114.167L155.108 86.9667C159.263 82.83 159.263 76.1055 155.108 71.95L120.05 36.8828C115.894 32.7367 109.17 32.7367 105.033 36.8828L77.8333 64.0828M42.4167 149.583H42.4922V149.659H42.4167V149.583Z" stroke="#2FC3D7" stroke-width="3.5" stroke-linecap="round" stroke-linejoin="round"/>
</svg>
