<?xml version="1.0" encoding="UTF-8"?><svg id="Layer_1" xmlns="http://www.w3.org/2000/svg" viewBox="0 0 109.49 107.16"><defs><style>.cls-1{fill:#334155;}.cls-2{fill:#ff426c;}</style></defs><g><path class="cls-2" d="M49.83,0h14.25V46.64h-14.12l.32-7.03-.25-.06c-1.58,2.34-3.44,4.22-5.59,5.62-2.15,1.41-4.74,2.11-7.76,2.11-2.21,0-4.15-.37-5.81-1.12s-3.04-1.85-4.15-3.32c-1.11-1.47-1.94-3.27-2.49-5.4-.55-2.13-.83-4.58-.83-7.35,0-3.19,.38-5.89,1.15-8.08,.77-2.19,1.84-3.95,3.23-5.27,1.38-1.32,3.02-2.27,4.92-2.84,1.89-.58,3.99-.86,6.29-.86,1.66,0,3.17,.17,4.54,.51,1.36,.34,2.58,.85,3.64,1.53,1.06,.68,1.96,1.53,2.68,2.56V0Zm-5.88,21.66c-1.53,0-2.76,.28-3.67,.83-.92,.55-1.58,1.44-1.98,2.65-.41,1.21-.61,2.84-.61,4.89s.2,3.52,.61,4.7c.4,1.17,1.05,2,1.95,2.49,.89,.49,2.11,.73,3.64,.73,1.62,0,2.88-.24,3.77-.73,.89-.49,1.53-1.32,1.92-2.49,.38-1.17,.57-2.76,.57-4.76s-.19-3.67-.57-4.89c-.38-1.21-1.03-2.09-1.95-2.62-.92-.53-2.14-.8-3.67-.8Z"/><path class="cls-2" d="M86.69,47.59c-6.99,0-12.01-.91-15.08-2.72s-4.6-4.87-4.6-9.17h12.84c-.04,1.41,.36,2.39,1.21,2.94,.85,.55,2.47,.83,4.86,.83,2.09,0,3.51-.18,4.28-.54,.77-.36,1.15-.9,1.15-1.63,0-.64-.28-1.08-.83-1.31-.55-.23-1.38-.44-2.49-.61l-8.31-1.15c-3.88-.55-6.79-1.63-8.75-3.23s-2.94-3.95-2.94-7.06c0-3.75,1.51-6.58,4.54-8.5,3.02-1.92,7.5-2.87,13.42-2.87,4.22,0,7.68,.41,10.38,1.21,2.7,.81,4.74,2.07,6.1,3.77,1.36,1.7,2.07,3.92,2.11,6.64h-12.84c.04-1.19-.33-2.03-1.12-2.52-.79-.49-2.12-.73-3.99-.73-1.58,0-2.71,.16-3.39,.48-.68,.32-1.02,.78-1.02,1.37,0,.47,.21,.83,.64,1.09,.42,.26,1.11,.45,2.04,.57l10.35,1.41c3.28,.43,5.81,1.41,7.6,2.94,1.79,1.53,2.68,3.79,2.68,6.77,0,2.64-.71,4.86-2.14,6.64-1.43,1.79-3.54,3.13-6.33,4.02-2.79,.89-6.25,1.34-10.38,1.34Z"/></g><path class="cls-1" d="M15.36,96.41H3V12.59H15.36V96.41Z"/><g><path class="cls-1" d="M64.07,92.34c0,3.71-.88,6.64-2.65,8.82-1.77,2.17-4.22,3.72-7.35,4.63-3.13,.92-6.74,1.37-10.83,1.37-6.69,0-11.56-.87-14.63-2.62-3.07-1.75-4.66-4.54-4.79-8.37h14.44c.04,.55,.22,1.02,.54,1.41s.88,.66,1.69,.83c.81,.17,1.92,.26,3.32,.26,2.17,0,3.68-.41,4.54-1.21,.85-.81,1.28-2.13,1.28-3.96v-1.09c.04-.6,.06-1.17,.06-1.73s.01-1.12,.03-1.69c.02-.57,.03-1.14,.03-1.69l-.26-.06c-1.32,2.09-3.03,3.77-5.14,5.05s-4.67,1.92-7.7,1.92c-2.21,0-4.15-.37-5.81-1.12-1.66-.75-3.04-1.82-4.15-3.23-1.11-1.41-1.94-3.15-2.49-5.24-.55-2.09-.83-4.47-.83-7.16,0-3.11,.38-5.72,1.15-7.83,.77-2.11,1.84-3.79,3.23-5.05,1.38-1.26,3.02-2.16,4.92-2.72,1.89-.55,3.99-.83,6.29-.83,2.64,0,4.84,.38,6.61,1.15,1.77,.77,3.18,1.92,4.25,3.45v-3.96h14.25v30.66Zm-20.12-22.87c-1.53,0-2.76,.25-3.67,.73-.92,.49-1.58,1.29-1.98,2.4-.41,1.11-.61,2.6-.61,4.47s.2,3.44,.61,4.57c.4,1.13,1.05,1.94,1.95,2.43,.89,.49,2.11,.73,3.64,.73,1.62,0,2.88-.23,3.77-.7,.89-.47,1.53-1.28,1.92-2.43,.38-1.15,.57-2.7,.57-4.66s-.19-3.35-.57-4.44c-.38-1.09-1.03-1.87-1.95-2.36-.92-.49-2.14-.73-3.67-.73Z"/><path class="cls-1" d="M82.79,94.64h-14.25V61.67h13.93l-.32,7.03,.25,.06c1.58-2.6,3.63-4.54,6.17-5.81,2.53-1.28,5.31-1.92,8.34-1.92,3.54,0,6.26,.94,8.18,2.81,1.92,1.87,2.87,4.22,2.87,7.03v23.77h-14.25v-18.53c0-1.45-.31-2.59-.93-3.42-.62-.83-1.97-1.25-4.06-1.25-1.28,0-2.36,.16-3.26,.48s-1.56,.83-2.01,1.53-.67,1.63-.67,2.78v18.4Z"/></g></svg>