<svg width="900" height="600" viewBox="0 0 900 600" fill="none" xmlns="http://www.w3.org/2000/svg">
<g clip-path="url(#clip0_1136_197)">
<circle cx="150" cy="150" r="150" fill="#FF426C"/>
<path d="M600 0.000866771C599.704 0.000866771 599.409 0 599.112 0C433.918 0 300 133.917 300 299.112L300.002 300H600V0.000866771Z" fill="#2FC3D7"/>
<path d="M600 299.999C600.296 299.999 600.591 300 600.888 300C766.082 300 900 166.083 900 0.887615L899.998 3.81468e-05L600 1.19201e-05L600 299.999Z" fill="#334155"/>
<path d="M-2.26497e-05 599.999C0.296413 599.999 0.591118 600 0.887554 600C166.082 600 300 466.083 300 300.888L299.998 300L3.57706e-06 300L-2.26497e-05 599.999Z" fill="#2FC3D7"/>
<circle cx="450" cy="450" r="150" fill="#334155"/>
<path d="M899.999 600C899.999 599.704 900 599.409 900 599.112C900 433.918 766.083 300 600.888 300L600 300.002L600 600L899.999 600Z" fill="#334155"/>
<rect x="37.5" y="64.5" width="825" height="472" rx="15.5" fill="white" fill-opacity="0.96"/>
<rect x="37.5" y="64.5" width="825" height="472" rx="15.5" stroke="#CFD7E2"/>
<circle cx="67" cy="88" r="6" fill="#2FC3D7"/>
<circle cx="85" cy="88" r="6" fill="#FF426B"/>
<circle cx="103" cy="88" r="6" fill="#334155"/>
<g clip-path="url(#clip1_1136_197)">
<g clip-path="url(#clip2_1136_197)">
<rect x="61" y="121" width="491" height="283" rx="12" fill="#FFE6EB" fill-opacity="0.85"/>
<path d="M127 121V404" stroke="#FFB3C3" stroke-opacity="0.5"/>
<path d="M246 121V404" stroke="#FFB3C3" stroke-opacity="0.5"/>
<path d="M366 121V404" stroke="#FFB3C3" stroke-opacity="0.5"/>
<path d="M486 121V404" stroke="#FFB3C3" stroke-opacity="0.5"/>
<path d="M552 173L61 173" stroke="#FFB3C3" stroke-opacity="0.7"/>
<path d="M552 263L61 263" stroke="#FFB3C3" stroke-opacity="0.7"/>
<path d="M552 353L61 353" stroke="#FFB3C3" stroke-opacity="0.7"/>
<path fill-rule="evenodd" clip-rule="evenodd" d="M283 249C283 248.47 283.211 247.961 283.586 247.586C283.961 247.211 284.47 247 285 247H329C329.53 247 330.039 247.211 330.414 247.586C330.789 247.961 331 248.47 331 249C331 249.53 330.789 250.039 330.414 250.414C330.039 250.789 329.53 251 329 251H285C284.47 251 283.961 250.789 283.586 250.414C283.211 250.039 283 249.53 283 249ZM283 263C283 262.47 283.211 261.961 283.586 261.586C283.961 261.211 284.47 261 285 261H329C329.53 261 330.039 261.211 330.414 261.586C330.789 261.961 331 262.47 331 263C331 263.53 330.789 264.039 330.414 264.414C330.039 264.789 329.53 265 329 265H285C284.47 265 283.961 264.789 283.586 264.414C283.211 264.039 283 263.53 283 263ZM283 277C283 276.47 283.211 275.961 283.586 275.586C283.961 275.211 284.47 275 285 275H307C307.53 275 308.039 275.211 308.414 275.586C308.789 275.961 309 276.47 309 277C309 277.53 308.789 278.039 308.414 278.414C308.039 278.789 307.53 279 307 279H285C284.47 279 283.961 278.789 283.586 278.414C283.211 278.039 283 277.53 283 277Z" fill="#FF1A4B"/>
</g>
<rect x="61.5" y="121.5" width="490" height="282" rx="11.5" stroke="#FFB3C3"/>
<g clip-path="url(#clip3_1136_197)">
<rect x="576" y="121" width="263" height="283" rx="12" fill="#D4F3F7" fill-opacity="0.85"/>
<path d="M839 173L576 173" stroke="#A9E7EF" stroke-opacity="0.8"/>
<path d="M839 263L576 263" stroke="#A9E7EF" stroke-opacity="0.8"/>
<path d="M839 353L576 353" stroke="#A9E7EF" stroke-opacity="0.8"/>
<path d="M648 121V404" stroke="#A9E7EF" stroke-opacity="0.8"/>
<path d="M768 121V404" stroke="#A9E7EF" stroke-opacity="0.8"/>
</g>
<rect x="576.5" y="121.5" width="262" height="282" rx="11.5" stroke="#A9E7EF"/>
</g>
<g clip-path="url(#clip4_1136_197)">
<rect x="61" y="428" width="778" height="85" rx="8" fill="#F5F7F9" fill-opacity="0.85"/>
<path d="M173.493 415L109 527.874" stroke="#CFD7E2" stroke-opacity="0.5"/>
<path d="M323.49 415L258.997 527.874" stroke="#CFD7E2" stroke-opacity="0.5"/>
<path d="M473.49 415L408.997 527.874" stroke="#CFD7E2" stroke-opacity="0.5"/>
<path d="M623.49 415L558.997 527.874" stroke="#CFD7E2" stroke-opacity="0.5"/>
<path d="M773.49 415L708.997 527.874" stroke="#CFD7E2" stroke-opacity="0.5"/>
<path d="M127 328V611" stroke="#CFD7E2" stroke-opacity="0.5"/>
<path d="M234 328V611" stroke="#CFD7E2" stroke-opacity="0.5"/>
<path d="M341 328V611" stroke="#CFD7E2" stroke-opacity="0.5"/>
<path d="M448 328V611" stroke="#CFD7E2" stroke-opacity="0.5"/>
<path d="M555 328V611" stroke="#CFD7E2" stroke-opacity="0.5"/>
<path d="M662 328V611" stroke="#CFD7E2" stroke-opacity="0.5"/>
<path d="M769 328V611" stroke="#CFD7E2" stroke-opacity="0.5"/>
<path fill-rule="evenodd" clip-rule="evenodd" d="M441 457C441.265 457 441.52 457.105 441.707 457.293C441.895 457.48 442 457.735 442 458V461C442 461.265 441.895 461.52 441.707 461.707C441.52 461.895 441.265 462 441 462C440.735 462 440.48 461.895 440.293 461.707C440.105 461.52 440 461.265 440 461V458C440 457.735 440.105 457.48 440.293 457.293C440.48 457.105 440.735 457 441 457ZM432.515 460.515C432.702 460.327 432.956 460.222 433.221 460.222C433.486 460.222 433.74 460.327 433.928 460.515L436.051 462.636C436.233 462.825 436.333 463.077 436.331 463.34C436.329 463.602 436.223 463.852 436.038 464.038C435.852 464.223 435.601 464.328 435.339 464.33C435.077 464.332 434.825 464.232 434.636 464.049L432.515 461.929C432.422 461.836 432.348 461.726 432.298 461.605C432.247 461.483 432.222 461.353 432.222 461.222C432.222 461.091 432.247 460.961 432.298 460.839C432.348 460.718 432.422 460.608 432.515 460.515ZM449.485 460.515C449.673 460.702 449.778 460.956 449.778 461.221C449.778 461.486 449.673 461.74 449.485 461.928L447.364 464.051C447.175 464.233 446.923 464.333 446.66 464.331C446.398 464.329 446.148 464.223 445.962 464.038C445.777 463.852 445.672 463.601 445.67 463.339C445.668 463.077 445.768 462.825 445.951 462.636L448.071 460.515C448.164 460.422 448.274 460.348 448.395 460.298C448.517 460.247 448.647 460.222 448.778 460.222C448.909 460.222 449.039 460.247 449.161 460.298C449.282 460.348 449.392 460.422 449.485 460.515ZM440.397 466.509C440.6 466.455 440.815 466.466 441.011 466.54C441.207 466.615 441.375 466.749 441.491 466.924L448.461 477.48C448.57 477.645 448.628 477.839 448.627 478.037C448.626 478.235 448.566 478.428 448.455 478.592C448.344 478.756 448.187 478.883 448.004 478.957C447.82 479.032 447.619 479.051 447.425 479.011L444.629 478.437L446.023 483.637C446.091 483.894 446.055 484.167 445.922 484.397C445.79 484.626 445.571 484.794 445.315 484.863C445.058 484.931 444.785 484.895 444.555 484.762C444.326 484.63 444.158 484.411 444.089 484.155L442.697 478.956L440.563 480.849C440.415 480.981 440.231 481.066 440.035 481.093C439.839 481.12 439.639 481.088 439.461 481.001C439.283 480.915 439.135 480.778 439.035 480.607C438.935 480.436 438.888 480.239 438.9 480.041L439.659 467.415C439.671 467.205 439.749 467.005 439.882 466.842C440.014 466.679 440.195 466.562 440.397 466.508V466.509ZM429 469C429 468.735 429.105 468.48 429.293 468.293C429.48 468.105 429.735 468 430 468H433C433.265 468 433.52 468.105 433.707 468.293C433.895 468.48 434 468.735 434 469C434 469.265 433.895 469.52 433.707 469.707C433.52 469.895 433.265 470 433 470H430C429.735 470 429.48 469.895 429.293 469.707C429.105 469.52 429 469.265 429 469ZM448 469C448 468.735 448.105 468.48 448.293 468.293C448.48 468.105 448.735 468 449 468H452C452.265 468 452.52 468.105 452.707 468.293C452.895 468.48 453 468.735 453 469C453 469.265 452.895 469.52 452.707 469.707C452.52 469.895 452.265 470 452 470H449C448.735 470 448.48 469.895 448.293 469.707C448.105 469.52 448 469.265 448 469ZM436.051 473.949C436.144 474.042 436.217 474.152 436.268 474.274C436.318 474.395 436.344 474.525 436.344 474.657C436.344 474.788 436.318 474.918 436.268 475.039C436.217 475.161 436.144 475.271 436.051 475.364L433.929 477.485C433.837 477.581 433.727 477.657 433.605 477.71C433.483 477.762 433.352 477.79 433.219 477.791C433.086 477.792 432.954 477.767 432.831 477.717C432.709 477.666 432.597 477.592 432.503 477.498C432.409 477.405 432.335 477.293 432.284 477.17C432.234 477.047 432.209 476.916 432.21 476.783C432.211 476.65 432.238 476.519 432.291 476.397C432.343 476.275 432.419 476.164 432.515 476.072L434.636 473.949C434.824 473.762 435.078 473.657 435.343 473.657C435.608 473.657 435.862 473.762 436.049 473.949H436.051Z" fill="#334155"/>
</g>
<rect x="61.5" y="428.5" width="777" height="84" rx="7.5" stroke="#CFD7E2"/>
<path fill-rule="evenodd" clip-rule="evenodd" d="M680 247C680 245.409 680.632 243.883 681.757 242.757C682.883 241.632 684.409 241 686 241H730C731.591 241 733.117 241.632 734.243 242.757C735.368 243.883 736 245.409 736 247V279C736 280.591 735.368 282.117 734.243 283.243C733.117 284.368 731.591 285 730 285H686C684.409 285 682.883 284.368 681.757 283.243C680.632 282.117 680 280.591 680 279V247ZM684 273.827V279C684 280.104 684.896 281 686 281H730C730.53 281 731.039 280.789 731.414 280.414C731.789 280.039 732 279.53 732 279V273.827L724.827 266.656C724.077 265.907 723.06 265.486 722 265.486C720.94 265.486 719.923 265.907 719.173 266.656L716.827 269L719.413 271.587C719.61 271.77 719.767 271.991 719.877 272.236C719.986 272.481 720.045 272.746 720.05 273.015C720.054 273.283 720.005 273.55 719.904 273.799C719.804 274.048 719.654 274.274 719.464 274.464C719.274 274.654 719.048 274.804 718.799 274.904C718.55 275.005 718.283 275.054 718.015 275.05C717.746 275.045 717.481 274.986 717.236 274.877C716.991 274.767 716.77 274.61 716.587 274.413L702.827 260.656C702.077 259.907 701.06 259.486 700 259.486C698.94 259.486 697.923 259.907 697.173 260.656L684 273.829V273.827ZM711 253C711 252.204 711.316 251.441 711.879 250.879C712.441 250.316 713.204 250 714 250C714.796 250 715.559 250.316 716.121 250.879C716.684 251.441 717 252.204 717 253C717 253.796 716.684 254.559 716.121 255.121C715.559 255.684 714.796 256 714 256C713.204 256 712.441 255.684 711.879 255.121C711.316 254.559 711 253.796 711 253Z" fill="#2DC3D7"/>
</g>
<defs>
<clipPath id="clip0_1136_197">
<rect width="900" height="600" fill="white"/>
</clipPath>
<clipPath id="clip1_1136_197">
<rect width="778" height="283" fill="white" transform="translate(61 121)"/>
</clipPath>
<clipPath id="clip2_1136_197">
<rect x="61" y="121" width="491" height="283" rx="12" fill="white"/>
</clipPath>
<clipPath id="clip3_1136_197">
<rect x="576" y="121" width="263" height="283" rx="12" fill="white"/>
</clipPath>
<clipPath id="clip4_1136_197">
<rect x="61" y="428" width="778" height="85" rx="8" fill="white"/>
</clipPath>
</defs>
</svg>
