<?xml version="1.0" encoding="UTF-8"?><svg id="Layer_2" xmlns="http://www.w3.org/2000/svg" viewBox="0 0 512 768"><defs><style>.cls-1{fill:#2fc3d7;}.cls-1,.cls-2,.cls-3{opacity:.3;}.cls-4{opacity:.4;}.cls-4,.cls-2{fill:#334155;}.cls-3{fill:#ff426c;}</style></defs><circle class="cls-1" cx="192" cy="65" r="34"/><circle class="cls-1" cx="63.5" cy="191.5" r="30.5"/><circle class="cls-2" cx="192.5" cy="447.5" r="30.5"/><circle class="cls-2" cx="448.5" cy="447.5" r="30.5"/><circle class="cls-3" cx="63.5" cy="319.5" r="23.5"/><circle class="cls-2" cx="192.5" cy="703.5" r="23.5"/><circle class="cls-2" cx="319.5" cy="191.5" r="26.5"/><circle class="cls-3" cx="319.5" cy="319.5" r="26.5"/><circle class="cls-2" cx="319.5" cy="575.5" r="13.5"/><circle class="cls-3" cx="319" cy="65" r="34"/><polygon class="cls-2" points="64.05 33.93 33.1 96 96 96 64.05 33.93"/><polygon class="cls-2" points="64.16 427.23 43.97 467.73 85.01 467.73 64.16 427.23"/><polygon class="cls-3" points="448.2 559.46 430.96 594.02 465.98 594.02 448.2 559.46"/><polygon class="cls-1" points="448.06 675.75 418.02 736 479.07 736 448.06 675.75"/><rect class="cls-3" x="441.67" y="57.72" width="12.66" height="12.66" rx=".93" ry=".93" transform="translate(176.51 -298.02) rotate(45)"/><rect class="cls-1" x="426.82" y="171.87" width="42.36" height="42.36" rx=".93" ry=".93" transform="translate(267.72 -260.24) rotate(45)"/><rect class="cls-3" x="180.65" y="307.7" width="22.7" height="22.7" rx=".93" ry=".93" transform="translate(281.84 -42.32) rotate(45)"/><rect class="cls-3" x="52.65" y="691.7" width="22.7" height="22.7" rx=".93" ry=".93" transform="translate(515.88 160.66) rotate(45)"/><rect class="cls-3" x="315.67" y="696.72" width="12.66" height="12.66" rx=".93" ry=".93" transform="translate(591.44 -21.77) rotate(45)"/><rect class="cls-4" x="126" width="2" height="384"/><rect class="cls-4" x="255" y="256" width="2" height="128"/><rect class="cls-4" x="381" y="639" width="2" height="129"/><rect class="cls-4" x="63" y="448" width="2" height="128" transform="translate(576 448) rotate(90)"/><rect class="cls-4" x="254.5" y="512.5" width="2" height="255" transform="translate(895.5 384.5) rotate(90)"/><rect class="cls-4" x="382" y="256" width="2" height="256"/><polygon class="cls-4" points="384 126 384 0 382 0 382 126 382 128 384 128 512 128 512 126 384 126"/></svg>